<svg id="Capa_1" enable-background="new 0 0 512 512" height="512" viewBox="0 0 512 512" width="512" xmlns="http://www.w3.org/2000/svg"><g><path d="m65 106h146v84h-146z" fill="#ff9100"/><path d="m507.21 315.967c-10.626 17.227-39.434 30.033-71.21 30.033h-345l-30 30v60l30 30h60l15-30 15 30h30l15-30 15 30h30l15-30 15 30h30l15-30 15 30h30l15-30 15 28.949c51.398-5.11 91-35.63 91-73.949v-90z" fill="#fed843"/><path d="m286 436 15 30h30l15-30 15 30h30l15-30 15 28.949c51.398-5.11 91-35.63 91-73.949v-90l-4.79 14.967c-10.626 17.227-39.434 30.033-71.21 30.033h-180v120h15z" fill="#fabe2c"/><path d="m166 406c-8.284 0-15 6.714-15 15v45h30v-45c0-8.286-6.716-15-15-15z" fill="#4d578c"/><path d="m226 406c-8.284 0-15 6.714-15 15v45h30v-45c0-8.286-6.716-15-15-15z" fill="#4d578c"/><path d="m286 406c-8.284 0-15 6.714-15 15v45h30v-45c0-8.286-6.716-15-15-15z" fill="#333e73"/><path d="m346 406c-8.284 0-15 6.714-15 15v45h30v-45c0-8.286-6.716-15-15-15z" fill="#333e73"/><path d="m15 346c-8.401 0-15 6.599-15 15v90c0 8.399 6.599 15 15 15h76v-120z" fill="#f0f7ff"/><path d="m406 406c-8.284 0-15 6.714-15 15v45h15c5.153 0 10.063-.56 15-1.051v-43.949c0-8.286-6.716-15-15-15z" fill="#333e73"/><path d="m406 166h-300v-60h-106v105c0 38.373 39.551 68.853 91 73.951l15-28.951 15 30h30l15-30 15 30h30l15-30 15 30h30l15-30 15 30h30l15-30 15 30h30l15-30 15 30h15c31.873 0 60.604 12.739 71.21 29.967 2.917-4.73 4.79-9.732 4.79-14.967v-60c0-42.056-47.128-75-106-75z" fill="#fabe2c"/><path d="m286 256 15 30h30l15-30 15 30h30l15-30 15 30h15c31.873 0 60.604 12.739 71.21 29.967 2.917-4.73 4.79-9.732 4.79-14.967v-60c0-42.056-47.128-75-106-75h-150v120h15z" fill="#ff9100"/><g fill="#333e73"><path d="m106 226c-8.284 0-15 6.714-15 15v43.951c4.937.489 9.846 1.049 15 1.049h15v-45c0-8.286-6.716-15-15-15z"/><path d="m166 226c-8.284 0-15 6.714-15 15v45h30v-45c0-8.286-6.716-15-15-15z"/><path d="m226 226c-8.284 0-15 6.714-15 15v45h30v-45c0-8.286-6.716-15-15-15z"/></g><path d="m286 226c-8.284 0-15 6.714-15 15v45h30v-45c0-8.286-6.716-15-15-15z" fill="#1f2859"/><path d="m346 226c-8.284 0-15 6.714-15 15v45h30v-45c0-8.286-6.716-15-15-15z" fill="#1f2859"/><path d="m406 226c-8.284 0-15 6.714-15 15v45h30v-45c0-8.286-6.716-15-15-15z" fill="#1f2859"/><path d="m211 106c0 33.137-47.01 60-105 60s-106-26.863-106-60 48.01-60 106-60 105 26.863 105 60z" fill="#fed843"/><path d="m136 121h-60c-8.291 0-15-6.709-15-15s6.709-15 15-15h60c8.291 0 15 6.709 15 15s-6.709 15-15 15z" fill="#1f2859"/></g></svg>